<svg width="12" height="12" viewBox="0 0 12 12" fill="none" xmlns="http://www.w3.org/2000/svg">
<path d="M5.85844 4.54288L5.99987 4.68432L6.14129 4.54287L10.2107 0.47269C10.2107 0.472685 10.2107 0.472681 10.2107 0.472677C10.5742 0.109203 11.1629 0.109001 11.5273 0.472712C11.8903 0.836492 11.8907 1.4259 11.5273 1.78928L7.45713 5.85871L7.31568 6.00013L7.45712 6.14156L11.5258 10.2102C11.8895 10.5739 11.8901 11.1626 11.5258 11.5268C11.163 11.8896 10.5735 11.8898 10.2098 11.5267L6.14129 7.45741L5.99987 7.31596L5.85844 7.4574L1.78824 11.5276C1.42526 11.8906 0.83518 11.891 0.472528 11.5277L0.472407 11.5276C0.108908 11.1641 0.109488 10.5747 0.472407 10.2118L4.5426 6.14156L4.68403 6.00013L4.54259 5.85871L0.473161 1.79004C0.473157 1.79003 0.473152 1.79003 0.473148 1.79002C0.109661 1.42652 0.110246 0.836359 0.473161 0.473444C0.836747 0.109857 1.42541 0.109857 1.789 0.473444L5.85844 4.54288Z" fill="black" stroke="white" stroke-width="0.4"/>
</svg>
