<svg width="52" height="52" viewBox="0 0 52 52" fill="none" xmlns="http://www.w3.org/2000/svg">
<rect x="0.5" y="0.5" width="51" height="51" rx="25.5" stroke="url(#paint0_linear_1_5284)"/>
<path d="M33 17H19C17.8954 17 17 17.8954 17 19V33C17 34.1046 17.8954 35 19 35H33C34.1046 35 35 34.1046 35 33V19C35 17.8954 34.1046 17 33 17Z" stroke="white" stroke-width="2" stroke-linecap="round" stroke-linejoin="round"/>
<path d="M22.5 24C23.3284 24 24 23.3284 24 22.5C24 21.6716 23.3284 21 22.5 21C21.6716 21 21 21.6716 21 22.5C21 23.3284 21.6716 24 22.5 24Z" stroke="white" stroke-width="2" stroke-linecap="round" stroke-linejoin="round"/>
<path d="M35 29L30 24L19 35" stroke="white" stroke-width="2" stroke-linecap="round" stroke-linejoin="round"/>
<path d="M34.6559 19.8165C33.728 18.3488 32.4381 17.1493 30.9121 16.3314C30.9121 16.2991 30.9121 16.2667 30.9121 16.2344C30.9121 13.5704 28.746 11.4043 26.0853 11.4043C23.4213 11.4043 21.2552 13.5704 21.2552 16.2344C21.2552 16.2926 21.2552 16.354 21.2584 16.4122C18.1839 18.1321 16.2247 21.3457 16.118 24.8729C16.1148 24.999 16.0857 25.0927 16.0242 25.1994L14.2299 28.3257C13.9228 28.8656 13.9228 29.4831 14.2332 30.0198C14.5403 30.55 15.0899 30.8668 15.7042 30.8668H15.8109C16.1956 30.8668 16.5092 31.1804 16.5092 31.5619V34.3552C16.5092 35.2928 17.2689 36.0525 18.2065 36.0525H19.3671C19.7519 36.0525 20.0622 36.3661 20.0622 36.7476V38.3027C20.0622 39.2402 20.822 40 21.7595 40H29.2374C30.1718 40 30.9347 39.237 30.9347 38.3027V34.436C30.9347 34.1774 31.0544 33.9705 31.2774 33.8379C32.7517 32.965 33.9899 31.7203 34.8531 30.2364C35.7422 28.7104 36.2142 26.9614 36.2142 25.1865C36.211 23.2758 35.6743 21.4201 34.6559 19.8165ZM26.0853 12.4065C28.1964 12.4065 29.9131 14.1233 29.9131 16.2344C29.9131 17.3692 29.412 18.4393 28.5423 19.1699C28.3257 19.351 28.1576 19.5644 28.038 19.8068H24.1326C24.0129 19.5676 23.8448 19.351 23.6282 19.1699C22.7553 18.4393 22.2574 17.3692 22.2574 16.2344C22.2574 14.1233 23.9741 12.4065 26.0853 12.4065ZM28.1059 20.8091C28.2675 20.8091 28.4033 20.9448 28.4033 21.1065C28.4033 21.2649 28.2675 21.4007 28.1059 21.4007H24.0679C23.9095 21.4007 23.7737 21.2649 23.7737 21.1065C23.7737 20.9448 23.9095 20.8091 24.0679 20.8091H28.1059ZM27.6985 22.3997C27.4302 23.0204 26.8095 23.4536 26.1014 23.4536C25.3643 23.4536 24.7404 23.0269 24.472 22.3997H27.6985ZM30.7666 32.9747C30.2364 33.2883 29.9325 33.8185 29.9325 34.436V38.3092C29.9325 38.6939 29.6189 39.0075 29.2374 39.0075H21.7595C21.3748 39.0075 21.0645 38.6939 21.0645 38.3092V36.7541C21.0645 35.8198 20.3047 35.0568 19.3671 35.0568H18.2065C17.8218 35.0568 17.5114 34.7432 17.5114 34.3585V31.5684C17.5114 30.6341 16.7484 29.8711 15.8141 29.8711H15.7074C15.4488 29.8711 15.2354 29.7482 15.1061 29.5252C14.9735 29.2988 14.9735 29.0564 15.1061 28.8301L16.9004 25.7038C17.0459 25.4516 17.117 25.2027 17.1267 24.9085C17.2172 21.8598 18.8466 19.0729 21.4266 17.4823C21.6787 18.4328 22.2219 19.2928 22.9945 19.9394C23.0721 20.004 23.14 20.0784 23.1918 20.1592C22.9396 20.3952 22.7779 20.7315 22.7779 21.1065C22.7779 21.5656 23.0204 21.9697 23.3825 22.1992C23.6153 23.486 24.7565 24.4558 26.1079 24.4558C27.4431 24.4558 28.5747 23.486 28.8042 22.1992C29.1663 21.9697 29.4088 21.5656 29.4088 21.1033C29.4088 20.7282 29.2504 20.392 28.9949 20.156C29.0467 20.0752 29.1113 20.004 29.1922 19.9361C29.9875 19.2702 30.5371 18.3811 30.7796 17.3983C33.534 19.0244 35.2184 21.9503 35.2184 25.1833C35.2087 28.3678 33.5082 31.3518 30.7666 32.9747ZM25.5842 10.0659V8.50111C25.5842 8.22308 25.8072 8 26.0853 8C26.3633 8 26.5864 8.22308 26.5864 8.50111V10.0659C26.5864 10.3439 26.3633 10.567 26.0853 10.567C25.8072 10.567 25.5842 10.3407 25.5842 10.0659ZM28.7363 10.6413L29.5187 9.28672C29.6577 9.04748 29.9616 8.96666 30.2041 9.10244C30.4433 9.24146 30.5241 9.54536 30.3884 9.78784L29.606 11.1425C29.509 11.3041 29.3409 11.3946 29.1695 11.3946C29.0855 11.3946 28.9982 11.372 28.9206 11.3267C28.6781 11.1877 28.5973 10.8806 28.7363 10.6413ZM30.9929 13.3991C30.8539 13.1598 30.938 12.8527 31.1772 12.7137L32.5318 11.9313C32.7711 11.7923 33.0782 11.8763 33.2172 12.1156C33.3562 12.3548 33.2722 12.662 33.0329 12.801L31.6783 13.5834C31.6007 13.6286 31.5134 13.6512 31.4294 13.6512C31.2548 13.6512 31.0867 13.5607 30.9929 13.3991ZM21.7854 9.78784C21.6464 9.5486 21.7305 9.24146 21.9697 9.10244C22.2089 8.96343 22.5161 9.04748 22.6551 9.28672L23.4375 10.6413C23.5765 10.8806 23.4924 11.1877 23.2532 11.3267C23.1724 11.372 23.0883 11.3946 23.001 11.3946C22.8264 11.3946 22.6583 11.3041 22.5678 11.1457L21.7854 9.78784ZM18.9566 12.1156C19.0956 11.8763 19.3995 11.7955 19.6419 11.9313L20.9966 12.7137C21.2358 12.8527 21.3166 13.1566 21.1808 13.3991C21.0871 13.5607 20.919 13.648 20.7476 13.648C20.6636 13.648 20.5763 13.6254 20.4987 13.5801L19.1441 12.7977C18.8984 12.662 18.8175 12.3548 18.9566 12.1156ZM23.431 16.3281L24.3783 17.0135L24.0162 18.1224C23.9192 18.4231 24.0226 18.7529 24.2813 18.9436C24.5399 19.1311 24.8858 19.1311 25.1445 18.9436L26.0853 18.255L27.0293 18.9469C27.1586 19.0406 27.3106 19.0859 27.4593 19.0859C27.6112 19.0859 27.76 19.0406 27.8893 18.9469C28.1479 18.7593 28.2546 18.4296 28.1544 18.1257L27.7923 17.0168L28.7395 16.3314C28.9982 16.1439 29.1049 15.8141 29.0079 15.5102C28.9077 15.2063 28.6296 15.0026 28.3096 15.0026L27.1425 15.0059L26.7836 13.8969C26.6866 13.593 26.4086 13.3861 26.0853 13.3861C25.762 13.3861 25.4839 13.5898 25.3869 13.8969L25.0281 15.0059L23.861 15.0026C23.5442 15.0026 23.2629 15.2063 23.1627 15.5102C23.0657 15.8109 23.1724 16.1406 23.431 16.3281ZM25.2221 16.0048C25.5454 16.0048 25.8234 15.8012 25.9204 15.494L26.0853 14.9897L26.2502 15.494C26.3471 15.7979 26.6252 16.0048 26.9485 16.0048H27.4819L27.0487 16.3184C26.7901 16.506 26.6834 16.8357 26.7804 17.1396L26.9452 17.644L26.5153 17.3304C26.3859 17.2366 26.2372 17.1914 26.0853 17.1914C25.9333 17.1914 25.7814 17.2398 25.6521 17.3336L25.2221 17.6472L25.3869 17.1429C25.4872 16.839 25.3772 16.5092 25.1186 16.3217L24.6854 16.0081L25.2221 16.0048Z" fill="url(#paint1_linear_1_5284)"/>
<defs>
<linearGradient id="paint0_linear_1_5284" x1="26" y1="0" x2="26" y2="52" gradientUnits="userSpaceOnUse">
<stop stop-color="#F4C05C"/>
<stop offset="1" stop-color="#D8A136"/>
</linearGradient>
<linearGradient id="paint1_linear_1_5284" x1="25.1071" y1="8" x2="25.1071" y2="40" gradientUnits="userSpaceOnUse">
<stop stop-color="#F4C05C"/>
<stop offset="1" stop-color="#D8A136"/>
</linearGradient>
</defs>
</svg>
