<svg width="46" height="42" viewBox="0 0 46 42" fill="none" xmlns="http://www.w3.org/2000/svg">
<path d="M18.7041 35.0288C16.7543 35.0288 15.168 36.5924 15.168 38.5144C15.168 40.4364 16.7543 42 18.7041 42C20.6539 42 22.2402 40.4364 22.2402 38.5144C22.2402 36.5924 20.6539 35.0288 18.7041 35.0288ZM18.7041 40.5597C17.5603 40.5597 16.6292 39.6419 16.6292 38.5144C16.6292 37.3869 17.5603 36.4691 18.7041 36.4691C19.8479 36.4691 20.779 37.3869 20.779 38.5144C20.779 39.6419 19.8479 40.5597 18.7041 40.5597Z" fill="white"/>
<path d="M34.6006 35.0288C32.6507 35.0288 31.0645 36.5924 31.0645 38.5144C31.0645 40.4364 32.6507 42 34.6006 42C36.5504 42 38.1367 40.4364 38.1367 38.5144C38.1367 36.5924 36.5504 35.0288 34.6006 35.0288ZM34.6006 40.5597C33.4567 40.5597 32.5257 39.6419 32.5257 38.5144C32.5257 37.3869 33.4567 36.4691 34.6006 36.4691C35.7444 36.4691 36.6755 37.3869 36.6755 38.5144C36.6755 39.6419 35.7444 40.5597 34.6006 40.5597Z" fill="white"/>
<path d="M45.1408 8.83671C44.893 8.49794 44.4926 8.2963 44.0694 8.2963H37.065C36.695 6.10642 35.5892 4.09918 33.9076 2.58914C32.0478 0.919506 29.6374 0 27.12 0C24.6026 0 22.1922 0.919506 20.333 2.58914C18.6508 4.09918 17.545 6.10642 17.1756 8.2963H8.84673L7.47027 4.76922C7.21778 4.12222 6.57543 3.68724 5.87172 3.68724H0V5.12757H5.87172C5.97517 5.12757 6.06927 5.19152 6.10609 5.28658L15.113 28.3699L13.681 31.8987C13.5162 32.3049 13.5664 32.7635 13.8148 33.1258C14.0638 33.4882 14.4771 33.7043 14.9207 33.7043H39.2772V32.264H15.1065L16.3924 29.0952H37.9166C38.487 29.0952 38.9903 28.7369 39.1697 28.2045L45.3226 10.0103C45.4564 9.61391 45.3886 9.17547 45.1408 8.83671ZM27.12 1.44033C31.5714 1.44033 35.2595 4.72774 35.6985 9.0856C35.7031 9.13457 35.7078 9.18296 35.7119 9.23251C35.7119 9.23481 35.7125 9.23712 35.7125 9.23942C35.7318 9.46815 35.7417 9.70379 35.7417 9.93885C35.7417 11.2634 35.4413 12.532 34.8492 13.7091C34.6148 14.1746 34.3349 14.6216 34.0181 15.037C32.3722 17.1975 29.8583 18.4368 27.1206 18.4368C24.3829 18.4368 21.8684 17.1975 20.2225 15.037C19.9057 14.6216 19.6264 14.1751 19.392 13.7096C18.7999 12.532 18.4995 11.264 18.4995 9.93885C18.4995 9.87835 18.5001 9.81786 18.5012 9.75736C18.5047 9.58337 18.5141 9.40996 18.5281 9.23942C18.5281 9.23712 18.5287 9.23481 18.5287 9.23251C18.5322 9.18411 18.5369 9.1363 18.5415 9.08905V9.0879C18.9811 4.72774 22.6686 1.44033 27.12 1.44033ZM37.8155 27.6543H16.4012L9.47622 9.73662H17.0394C17.0383 9.80403 17.0371 9.87086 17.0371 9.93827C17.0371 11.4869 17.3884 12.971 18.0821 14.3491C18.3563 14.8936 18.6836 15.4161 19.0536 15.9018C19.9729 17.1088 21.1782 18.109 22.5388 18.794C23.9655 19.5124 25.5068 19.8771 27.12 19.8771C28.7332 19.8771 30.2745 19.513 31.7012 18.794C33.0619 18.109 34.2671 17.1088 35.1859 15.9024C35.5564 15.4167 35.8832 14.8942 36.1579 14.3491C36.8511 12.971 37.2023 11.4875 37.2023 9.93885C37.2023 9.87144 37.2018 9.80461 37.2 9.7372H43.8742L37.8155 27.6543Z" fill="white"/>
<path d="M26.1855 13.4239C26.3725 13.4239 26.5596 13.3536 26.7022 13.213L32.3132 7.68217L31.2798 6.66357L26.1855 11.6851L23.8967 9.42901L22.8633 10.4476L25.6688 13.213C25.8114 13.3536 25.9984 13.4239 26.1855 13.4239Z" fill="white"/>
</svg>
