<svg width="15" height="16" viewBox="0 0 15 16" fill="none" xmlns="http://www.w3.org/2000/svg">
<path d="M14.0554 15.142L14.0548 15.1426C13.8264 15.3714 13.5161 15.5 13.1921 15.5H10.8242V12.0315C10.8242 11.1215 10.087 10.3843 9.1771 10.3843H5.73569C4.82575 10.3843 4.08855 11.1215 4.08855 12.0315V15.5H1.72071C1.39667 15.5 1.08642 15.3714 0.858036 15.1426L0.857406 15.142C0.628613 14.9136 0.5 14.6033 0.5 14.2793V14.2679V14.2564V14.2449V14.2334V14.2218V14.2101V14.1985V14.1867V14.175V14.1632V14.1513V14.1394V14.1275V14.1155V14.1035V14.0915V14.0794V14.0672V14.055V14.0428V14.0306V14.0183V14.0059V13.9936V13.9812V13.9687V13.9562V13.9437V13.9311V13.9185V13.9059V13.8932V13.8805V13.8677V13.8549V13.8421V13.8292V13.8163V13.8033V13.7904V13.7773V13.7643V13.7512V13.7381V13.7249V13.7117V13.6985V13.6852V13.6719V13.6586V13.6453V13.6319V13.6184V13.605V13.5915V13.5779V13.5644V13.5508V13.5371V13.5235V13.5098V13.496V13.4823V13.4685V13.4547V13.4408V13.4269V13.413V13.3991V13.3851V13.3711V13.357V13.343V13.3289V13.3148V13.3006V13.2864V13.2722V13.258V13.2437V13.2294V13.2151V13.2007V13.1863V13.1719V13.1575V13.143V13.1285V13.114V13.0995V13.0849V13.0703V13.0557V13.0411V13.0264V13.0117V12.997V12.9822V12.9675V12.9527V12.9378V12.923V12.9081V12.8932V12.8783V12.8634V12.8484V12.8334V12.8184V12.8034V12.7884V12.7733V12.7582V12.7431V12.7279V12.7128V12.6976V12.6824V12.6672V12.6519V12.6367V12.6214V12.6061V12.5908V12.5754V12.5601V12.5447V12.5293V12.5139V12.4984V12.483V12.4675V12.452V12.4365V12.421V12.4054V12.3899V12.3743V12.3587V12.3431V12.3275V12.3118V12.2962V12.2805V12.2648V12.2491V12.2334V12.2176V12.2019V12.1861V12.1703V12.1545V12.1387V12.1229V12.1071V12.0912V12.0754V12.0595V12.0436V12.0277V12.0118V11.9959V11.9799V11.964V11.948V11.932V11.9161V11.9001V11.8841V11.868V11.852V11.836V11.8199V11.8039V11.7878V11.7717V11.7557V11.7396V11.7235V11.7074V11.6912V11.6751V11.659V11.6428V11.6267V11.6105V11.5944V11.5782V11.562V11.5458V11.5296V11.5134V11.4972V11.481V11.4648V11.4486V11.4323V11.4161V11.3999V11.3836V11.3674V11.3511V11.3349V11.3186V11.3024V11.2861V11.2698V11.2535V11.2373V11.221V11.2047V11.1884V11.1721V11.1559V11.1396V11.1233V11.107V11.0907V11.0744V11.0581V11.0418V11.0255V11.0092V10.9929V10.9766V10.9603V10.944V10.9277V10.9115V10.8952V10.8789V10.8626V10.8463V10.83V10.8137V10.7974V10.7812V10.7649V10.7486V10.7324V10.7161V10.6998V10.6836V10.6673V10.6511V10.6348V10.6186V10.6023V10.5861V10.5699V10.5537V10.5375V10.5212V10.505V10.4888V10.4727V10.4565V10.4403V10.4241V10.408V10.3918V10.3757V10.3595V10.3434V10.3273V10.3111V10.295V10.2789V10.2629V10.2468V10.2307V10.2146V10.1986V10.1825V10.1665V10.1505V10.1345V10.1185V10.1025V10.0865V10.0705V10.0546V10.0386V10.0227V10.0068V9.99088V9.97499V9.9591V9.94323V9.92738V9.91153V9.8957V9.87989V9.86409V9.8483V9.83252V9.81676V9.80102V9.78529V9.76957V9.75387V9.73819V9.72252V9.70686V9.69123V9.67561V9.66V9.64441V9.62884V9.61329V9.59775V9.58223V9.56673V9.55125V9.53578V9.52033V9.5049V9.48949V9.4741V9.45873V9.44337V9.42804V9.41272V9.39743V9.38215V9.3669V9.35166V9.33645V9.32125V9.30608V9.29093V9.2758V9.26069V9.24561V9.23054V9.2155V9.20048V9.18548V9.17051V9.15555V9.14062V9.12572V9.11084V9.09598V9.08115V9.06633V9.05155V9.03679V9.02205V9.00734V8.99265V8.97799V8.96336V8.94874V8.93416V8.9196V8.90507V8.89056V8.87609V8.86163V8.84721V8.83281V8.81844V8.8041V8.78979V8.7755V8.76124V8.74701V8.73281V8.71864V8.70449V8.69038V8.6763V8.66224V8.64822V8.63422V8.62026V8.60632V8.59242V8.57855V8.5647V8.55089V8.53711V8.52337V8.50965V8.49597V8.48232V8.4687V8.45511V8.44156V8.42804V8.41455V8.40109V8.38767V8.37429V8.36094V8.34762V8.33433V8.32108V8.30787V8.29469V8.28154V8.26843V8.25536V8.24232V8.22932V8.21636V8.20343V8.19053V8.17768V8.16486V8.15207V8.13933V8.12662V8.11395V8.10132V8.08873V8.07617V8.06366V8.05118V8.03874V8.02634V8.01398V8.00166V7.98938V7.97714V7.96494V7.95278V7.94065V7.92858V7.91654V7.90454V7.89258V7.88067V7.86879V7.85696V7.84517V7.83343V7.82172V7.81006V7.79844V7.78686V7.77533V7.76384V7.7524V7.741V7.72964V7.71832V7.70706V7.69583V7.68465V7.67352V7.66243V7.65138V7.64039V7.62943V7.61853V7.60767V7.59685V7.58609V7.57537V7.56469V7.55407V7.54349V7.53296V7.52248V7.51204V7.50165V7.49131V7.48103V7.47078V7.46059V7.45045V7.44036V7.43031V7.42032V7.41037V7.40048V7.39064V7.38084V7.3711V7.36141V7.35177V7.34218V7.33264V7.32316V7.31372V7.30434V7.29501V7.28573V7.27651V7.26734V7.25822V7.24916V7.24015V7.23119V7.22229V7.21344V7.20464V7.1959V7.18722V7.17859V7.17001V7.16149V7.15302V7.14462V7.13626V7.12796V7.11972V7.11154V7.10341V7.09534C0.5 6.75789 0.639637 6.43534 0.885927 6.2049L0.886275 6.20457C1.95878 5.19917 5.13458 2.22354 6.62183 0.830356L6.622 0.8302C7.09156 0.389933 7.82123 0.389933 8.2908 0.8302L8.29092 0.830311L14.0266 6.20465L14.0269 6.2049C14.2732 6.43534 14.4128 6.75789 14.4128 7.09534V14.2793C14.4128 14.6033 14.2842 14.9136 14.0554 15.142ZM8.6771 12.5315V15.5H6.23569V12.5315H8.6771Z" stroke="#DFDFDF"/>
</svg>
