<svg width="16" height="16" viewBox="0 0 16 16" fill="none" xmlns="http://www.w3.org/2000/svg">
<path d="M0.5 1.96084C0.5 0.787505 1.815 0.0941721 2.78333 0.757505L11.5317 6.75251C11.7264 6.88596 11.8858 7.06468 11.9962 7.27332C12.1066 7.48196 12.1647 7.71427 12.1655 7.95032C12.1663 8.18636 12.1098 8.41908 12.0009 8.62848C11.8919 8.83788 11.7338 9.0177 11.54 9.15251L2.79083 15.2375C1.825 15.91 0.5 15.2167 0.5 14.04V1.96084ZM2.07583 1.78917C2.04456 1.76804 2.00814 1.75579 1.97045 1.75375C1.93277 1.7517 1.89523 1.75993 1.86186 1.77756C1.82849 1.79519 1.80053 1.82155 1.78098 1.85383C1.76142 1.88611 1.751 1.9231 1.75083 1.96084V14.04C1.75083 14.2083 1.93917 14.3067 2.0775 14.2108L10.8258 8.12667C10.8536 8.10746 10.8763 8.08177 10.892 8.05183C10.9077 8.02188 10.9158 7.98858 10.9157 7.95479C10.9156 7.92099 10.9073 7.88773 10.8915 7.85786C10.8757 7.82799 10.8529 7.80242 10.825 7.78334L2.07583 1.78917ZM15.5 1.12501C15.5 0.959245 15.4342 0.800274 15.3169 0.683064C15.1997 0.565853 15.0408 0.500005 14.875 0.500005C14.7092 0.500005 14.5503 0.565853 14.4331 0.683064C14.3158 0.800274 14.25 0.959245 14.25 1.12501V14.875C14.25 15.0408 14.3158 15.1997 14.4331 15.3169C14.5503 15.4342 14.7092 15.5 14.875 15.5C15.0408 15.5 15.1997 15.4342 15.3169 15.3169C15.4342 15.1997 15.5 15.0408 15.5 14.875V1.12501Z" fill="white"/>
</svg>
