<svg width="16" height="16" viewBox="0 0 16 16" fill="none" xmlns="http://www.w3.org/2000/svg">
<path d="M15.5 1.96084C15.5 0.787505 14.185 0.0941721 13.2167 0.757505L4.46833 6.75251C4.27364 6.88596 4.11424 7.06468 4.00384 7.27332C3.89345 7.48196 3.83534 7.71427 3.83452 7.95032C3.8337 8.18636 3.89019 8.41908 3.99914 8.62848C4.10809 8.83788 4.26624 9.0177 4.46 9.15251L13.2092 15.2375C14.175 15.91 15.5 15.2167 15.5 14.04V1.96084ZM13.9242 1.78917C13.9554 1.76804 13.9919 1.75579 14.0295 1.75375C14.0672 1.7517 14.1048 1.75993 14.1381 1.77756C14.1715 1.79519 14.1995 1.82155 14.219 1.85383C14.2386 1.88611 14.249 1.9231 14.2492 1.96084V14.04C14.2492 14.2083 14.0608 14.3067 13.9225 14.2108L5.17417 8.12667C5.14637 8.10746 5.12366 8.08177 5.108 8.05183C5.09235 8.02188 5.08421 7.98858 5.08429 7.95479C5.08437 7.92099 5.09267 7.88773 5.10847 7.85786C5.12428 7.82799 5.14711 7.80242 5.175 7.78334L13.9242 1.78917ZM0.5 1.12501C0.5 0.959245 0.565848 0.800274 0.683058 0.683064C0.800268 0.565853 0.95924 0.500005 1.125 0.500005C1.29076 0.500005 1.44973 0.565853 1.56694 0.683064C1.68415 0.800274 1.75 0.959245 1.75 1.12501V14.875C1.75 15.0408 1.68415 15.1997 1.56694 15.3169C1.44973 15.4342 1.29076 15.5 1.125 15.5C0.95924 15.5 0.800268 15.4342 0.683058 15.3169C0.565848 15.1997 0.5 15.0408 0.5 14.875V1.12501Z" fill="white"/>
</svg>
