<svg width="18" height="19" viewBox="0 0 18 19" fill="none" xmlns="http://www.w3.org/2000/svg">
<rect x="0.5" y="1" width="17" height="17" rx="8.5" stroke="black"/>
<g clip-path="url(#clip0_1_1081)">
<rect x="3" y="3.5" width="12" height="12" rx="6" fill="black"/>
<path d="M11.5161 8.11865L11.2529 9.06934H6.22559L6.48877 8.11865H11.5161ZM9.08301 14L6.38135 10.8149L6.37598 10.0146H7.65967C7.99268 10.0146 8.2666 9.95557 8.48145 9.8374C8.69987 9.71566 8.86279 9.55273 8.97021 9.34863C9.07764 9.14095 9.13135 8.90999 9.13135 8.65576C9.13135 8.38005 9.08122 8.13656 8.98096 7.92529C8.8807 7.71403 8.72135 7.54932 8.50293 7.43115C8.28451 7.31299 7.99626 7.25391 7.63818 7.25391H6.23096L6.521 6.17969H7.63818C8.27197 6.17969 8.79834 6.27458 9.21729 6.46436C9.63623 6.65413 9.94954 6.92985 10.1572 7.2915C10.3685 7.65316 10.4741 8.09001 10.4741 8.60205C10.4741 9.04964 10.3971 9.44531 10.2432 9.78906C10.0892 10.1292 9.84033 10.4049 9.49658 10.6162C9.15283 10.8239 8.69629 10.9528 8.12695 11.0029L10.5977 13.9302V14H9.08301ZM11.5215 6.17969L11.2529 7.13037H7.14404L7.40723 6.17969H11.5215Z" fill="white"/>
</g>
<defs>
<clipPath id="clip0_1_1081">
<rect x="3" y="3.5" width="12" height="12" rx="6" fill="white"/>
</clipPath>
</defs>
</svg>
