<svg width="24" height="24" viewBox="0 0 24 24" fill="none" xmlns="http://www.w3.org/2000/svg">
<path d="M15.7285 3.88389C17.1625 2.44389 19.2605 2.41389 20.4215 3.57989C21.5855 4.74789 21.5545 6.85989 20.1185 8.29989L17.6955 10.7329C17.559 10.8745 17.4837 11.0641 17.4857 11.2608C17.4877 11.4574 17.5668 11.6454 17.7061 11.7843C17.8453 11.9231 18.0335 12.0017 18.2302 12.0032C18.4269 12.0046 18.6162 11.9287 18.7575 11.7919L21.1815 9.35889C23.0925 7.43989 23.3325 4.37689 21.4845 2.52089C19.6345 0.663893 16.5775 0.905894 14.6645 2.82489L9.81846 7.69189C7.90746 9.61089 7.66746 12.6739 9.51546 14.5289C9.58448 14.6007 9.6671 14.658 9.75851 14.6975C9.84991 14.737 9.94827 14.7579 10.0478 14.759C10.1474 14.7601 10.2462 14.7413 10.3385 14.7039C10.4307 14.6664 10.5146 14.6109 10.5851 14.5406C10.6557 14.4704 10.7116 14.3868 10.7495 14.2947C10.7875 14.2026 10.8067 14.1039 10.8061 14.0044C10.8054 13.9048 10.785 13.8063 10.7459 13.7147C10.7068 13.6231 10.6499 13.5403 10.5785 13.4709C9.41446 12.3029 9.44646 10.1909 10.8815 8.75089L15.7285 3.88389Z" fill="white"/>
<path d="M14.4855 9.47011C14.3449 9.32914 14.1541 9.24979 13.955 9.24951C13.7559 9.24923 13.5649 9.32804 13.424 9.46861C13.283 9.60917 13.2036 9.79998 13.2034 9.99905C13.2031 10.1981 13.2819 10.3891 13.4225 10.5301C14.5865 11.6981 14.5555 13.8091 13.1195 15.2501L8.27246 20.1161C6.83746 21.5561 4.73946 21.5861 3.57846 20.4201C2.41446 19.2521 2.44646 17.1401 3.88146 15.7001L6.30546 13.2671C6.37499 13.1973 6.4301 13.1145 6.46763 13.0234C6.50516 12.9323 6.52438 12.8347 6.5242 12.7362C6.52401 12.6377 6.50442 12.5401 6.46655 12.4492C6.42868 12.3582 6.37326 12.2756 6.30346 12.2061C6.23366 12.1366 6.15085 12.0815 6.05976 12.0439C5.96866 12.0064 5.87107 11.9872 5.77254 11.9874C5.67402 11.9876 5.5765 12.0071 5.48555 12.045C5.3946 12.0829 5.31199 12.1383 5.24246 12.2081L2.81846 14.6411C0.907459 16.5611 0.667459 19.6231 2.51546 21.4791C4.36546 23.3371 7.42246 23.0941 9.33546 21.1751L14.1825 16.3081C16.0935 14.3901 16.3335 11.3251 14.4855 9.47011Z" fill="white"/>
</svg>
