<svg width="235" height="149" viewBox="0 0 235 149" fill="none" xmlns="http://www.w3.org/2000/svg">
<g clip-path="url(#clip0_1_6464)">
<path d="M20.8399 148.458C20.8399 148.458 -18.8516 118.469 11.322 90.0442C43.4455 59.7829 14.984 20.9322 58.5905 5.25764C105.735 -11.6888 117.865 18.1593 137.602 13.5755C176.968 4.4342 226.9 8.93549 218.592 53.3391C208.163 109.078 250.951 101.969 225.539 148.644L20.8389 148.458H20.8399Z" fill="#EBF3FA"/>
<g opacity="0.5">
<path d="M97.9903 57.6852C97.9903 57.6852 111.358 56.7502 110.214 46.3722C110.214 46.3722 108.594 39.5665 104.963 36.2978C104.963 36.2978 101.566 49.3643 99.1771 48.5811C96.7884 47.7979 104.011 34.295 104.011 34.295C104.011 34.295 95.3997 23.6687 90.829 22.0278C90.829 22.0278 92.2176 37.0097 90.095 35.6614C87.9723 34.3131 85.8034 18.7914 85.8034 18.7914C85.8034 18.7914 75.3797 11.2798 70.3551 17.1907C65.3296 23.1016 66.6942 27.8884 68.1873 29.111C69.6794 30.3336 80.6031 35.3205 79.6562 36.5994C78.7093 37.8783 70.313 36.6738 66.8227 33.4726C66.8227 33.4726 66.0806 46.7573 72.269 48.9893C78.4573 51.2213 82.0189 48.4162 85.8184 49.866C89.617 51.3149 91.8311 53.569 89.5327 53.6917C87.2342 53.8143 81.3431 50.2199 77.1951 51.342C73.0472 52.4641 69.9184 52.8853 74.8847 56.6114C79.852 60.3385 90.0538 64.2939 94.023 60.9911L97.9923 57.6882L97.9903 57.6852Z" fill="#AEC3FF"/>
<path d="M74.5742 21.7715C74.5742 21.7715 99.6609 45.3568 97.9911 57.6853C97.9911 57.6853 95.5893 62.4188 95.9558 69.3231L94.9577 71.4405C94.9577 71.4405 95.2479 62.7748 94.0209 60.9871C94.0209 60.9871 105.037 54.7987 74.5732 21.7705L74.5742 21.7715Z" fill="#AEC3FF"/>
<path d="M95.9555 69.3232C95.9555 69.3232 97.2508 78.4233 90.6659 85.6453L89.6396 84.7746C89.6396 84.7746 95.1653 76.0043 94.9815 70.1939C94.7978 64.3836 95.9545 69.3232 95.9545 69.3232H95.9555Z" fill="#AEC3FF"/>
</g>
<path d="M71.604 106.259C71.604 106.259 77.0985 89.7783 64.1284 86.016C64.1284 86.016 55.1928 84.5913 49.4905 87.326C49.4905 87.326 63.4265 97.8589 61.3089 100.334C59.1912 102.81 46.6258 87.4768 46.6258 87.4768C46.6258 87.4768 29.6673 92.5402 25.4461 97.2053C25.4461 97.2053 44.0382 102.95 41.3773 104.827C38.7164 106.705 19.0931 101.626 19.0931 101.626C19.0931 101.626 4.9602 110.401 9.53895 119.346C14.1177 128.291 20.5139 129.023 22.7139 127.84C24.9129 126.656 36.2754 116.033 37.3357 117.8C38.3951 119.568 32.8042 129.033 27.2515 131.632C27.2515 131.632 42.7609 139.091 48.4894 132.78C54.2178 126.469 52.6273 120.814 56.2381 116.978C59.8489 113.142 63.6374 111.605 62.6464 114.419C61.6553 117.233 54.4468 122.515 53.7359 128.041C53.025 133.567 51.9807 137.524 58.891 133.415C65.8013 129.307 75.5753 119.037 73.5901 112.648L71.605 106.258L71.604 106.259Z" fill="#AEC3FF"/>
<path d="M17.1006 116.557C17.1006 116.557 57.6958 98.1603 71.6037 106.259C71.6037 106.259 76.3311 112.063 73.5888 112.649C73.5888 112.649 71.6419 96.3878 17.1006 116.557Z" fill="#AEC3FF"/>
<path d="M159.898 49.1994C159.898 49.1994 165.668 24.7153 185.131 22.0228C185.131 22.0228 188.917 21.5573 190.178 25.7318C191.44 29.9073 183.911 29.9375 179.257 31.6166C174.603 33.2956 163.753 40.415 159.899 49.1984L159.898 49.1994Z" fill="#D2E0FF"/>
<path d="M159.456 44.6178C159.456 44.6178 157.433 24.3363 171.636 17.1385C171.636 17.1385 174.414 15.7822 176.48 18.6487C178.544 21.5151 172.784 23.524 169.661 26.0395C166.537 28.5541 160.099 36.872 159.457 44.6178H159.456Z" fill="#D2E0FF"/>
<path d="M57.7847 80.7878C57.7847 80.7878 43.197 67.1271 29.1324 73.9288C29.1324 73.9288 26.4213 75.2902 27.4235 78.6101C28.4256 81.929 33.421 78.6292 37.2406 77.6881C41.0593 76.747 51.3715 76.6746 57.7857 80.7878H57.7847Z" fill="#AEC3FF"/>
<path d="M56.0617 77.5606C56.0617 77.5606 48.4807 63.2453 35.9142 64.7454C35.9142 64.7454 33.4793 65.0732 33.3728 67.8813C33.2674 70.6885 37.9636 69.479 41.1366 69.7655C44.3096 70.0521 52.23 72.7174 56.0617 77.5616V77.5606Z" fill="#AEC3FF"/>
<path d="M177.143 62.4569C177.143 62.4569 166.939 56.735 171.701 48.9701C171.701 48.9701 175.51 44.2024 179.592 42.9758C179.592 42.9758 177.415 54.5553 179.592 54.8277C181.769 55.1002 181.088 41.7492 181.088 41.7492C181.088 41.7492 191.836 36.5722 196.054 36.9814C196.054 36.9814 189.388 48.2884 191.565 48.016C193.742 47.7435 201.224 36.2997 201.224 36.2997C201.224 36.2997 212.244 34.2567 214.014 40.795C215.782 47.3343 212.925 50.6039 211.293 51.0121C209.66 51.4213 199.184 51.2846 199.456 52.647C199.728 54.0093 206.803 56.1891 210.748 54.9624C210.748 54.9624 206.395 65.7245 200.68 65.1796C194.966 64.6346 193.198 61.0925 189.66 60.8201C186.123 60.5476 183.538 61.5017 185.306 62.4549C187.075 63.409 193.061 62.7676 195.919 65.1997C198.776 67.6318 201.089 69.1309 195.783 70.2198C190.477 71.3097 180.953 70.629 179.049 66.5419L177.144 62.4549L177.143 62.4569Z" fill="#AEC3FF"/>
<path d="M208.978 42.8398C208.978 42.8398 180.407 52.1038 177.142 62.4577C177.142 62.4577 177.278 67.0897 174.421 72.4024V74.4464C174.421 74.4464 177.414 67.4989 179.047 66.5448C179.047 66.5448 172.653 57.5532 208.978 42.8409V42.8398Z" fill="#AEC3FF"/>
<path d="M174.421 72.4015C174.421 72.4015 170.015 79.1017 172.527 87.2567L173.66 86.952C173.66 86.952 172.56 77.9696 174.865 73.4512C177.171 68.9338 174.421 72.4015 174.421 72.4015Z" fill="#AEC3FF"/>
<path d="M77.4853 148.161L89.1541 148.42C89.7907 147.903 88.7594 146.673 87.6559 146.568C87.177 146.521 86.5675 146.608 85.8706 146.74C85.7571 144.6 85.0523 134.98 81.5871 135.29C77.6921 135.636 81.4937 139.518 82.543 141.789C83.3202 143.471 84.1255 145.878 84.493 147.013C84.1757 147.075 83.8483 147.135 83.513 147.188C83.033 145.594 81.2336 140.225 78.7896 140.481C75.9199 140.781 77.0234 142.942 79.0236 144.254C80.4906 145.22 82.289 146.585 83.1424 147.245C82.4044 147.348 81.6343 147.412 80.8561 147.377C78.8589 147.286 77.8699 147.854 77.4843 148.162L77.4853 148.161Z" fill="#A8D29F"/>
<path d="M213.382 148.267H199.991C199.273 147.658 200.488 146.273 201.757 146.181C202.308 146.138 203.005 146.254 203.801 146.423C203.985 143.972 205.037 132.955 209.003 133.398C213.463 133.893 209.003 138.249 207.743 140.829C206.809 142.739 205.824 145.478 205.374 146.771C205.737 146.849 206.111 146.927 206.494 146.997C207.085 145.18 209.284 139.067 212.081 139.423C215.364 139.84 214.045 142.291 211.717 143.746C210.01 144.815 207.913 146.336 206.917 147.071C207.761 147.208 208.642 147.302 209.535 147.281C211.829 147.226 212.948 147.903 213.383 148.267H213.382Z" fill="#A8D29F"/>
<path d="M181.576 40.4795H54.5599C51.5847 40.4795 49.1729 42.8945 49.1729 45.8736V110.823C49.1729 113.802 51.5847 116.217 54.5599 116.217H181.576C184.551 116.217 186.963 113.802 186.963 110.823V45.8736C186.963 42.8945 184.551 40.4795 181.576 40.4795Z" fill="#D2E0FF"/>
<path d="M52.3107 40.4795H183.253C185.3 40.4795 186.963 42.1445 186.963 44.1945V47.1002H49.1729V43.6214C49.1729 41.8871 50.5786 40.4795 52.3107 40.4795Z" fill="#739AF0"/>
<path d="M56.4961 104.351C56.4961 101.469 58.8286 99.1338 61.7064 99.1338C64.5842 99.1338 66.9167 101.469 66.9167 104.351C66.9167 107.232 64.5842 109.568 61.7064 109.568C58.8286 109.568 56.4961 107.232 56.4961 104.351Z" fill="#F77D48"/>
<path d="M61.039 102.091H59.9014V106.898H61.039V102.091Z" fill="white"/>
<path d="M63.7597 102.091H62.6221V106.898H63.7597V102.091Z" fill="white"/>
<path d="M134.871 105.142H71.6896C71.2539 105.142 70.8994 104.788 70.8994 104.351C70.8994 103.914 71.2529 103.56 71.6896 103.56H134.871C135.307 103.56 135.662 103.913 135.662 104.351C135.662 104.787 135.308 105.142 134.871 105.142Z" fill="#AEC3FF"/>
<path d="M92.6083 105.142H71.6906C71.2548 105.142 70.9004 104.788 70.9004 104.351C70.9004 103.914 71.2538 103.56 71.6906 103.56H92.6083C93.044 103.56 93.3985 103.913 93.3985 104.351C93.3985 104.787 93.045 105.142 92.6083 105.142Z" fill="#F77D48"/>
<path d="M90.4775 104.351C90.4775 103.318 91.314 102.482 92.3442 102.482C93.3744 102.482 94.2108 103.319 94.2108 104.351C94.2108 105.383 93.3744 106.22 92.3442 106.22C91.314 106.22 90.4775 105.383 90.4775 104.351Z" fill="#F77D48"/>
<path d="M74.4258 108.004H71.8794C71.5742 108.004 71.3271 107.757 71.3271 107.451C71.3271 107.145 71.5742 106.898 71.8794 106.898H74.4258C74.7311 106.898 74.9781 107.145 74.9781 107.451C74.9781 107.757 74.7311 108.004 74.4258 108.004Z" fill="#739AF0"/>
<path d="M135.109 108.004H132.563C132.258 108.004 132.011 107.757 132.011 107.451C132.011 107.145 132.258 106.898 132.563 106.898H135.109C135.415 106.898 135.662 107.145 135.662 107.451C135.662 107.757 135.415 108.004 135.109 108.004Z" fill="#739AF0"/>
<path d="M134.87 89.9033H71.6887C71.2529 89.9033 70.8984 89.5494 70.8984 89.1121C70.8984 88.6757 71.2519 88.3208 71.6887 88.3208H134.87C135.306 88.3208 135.661 88.6747 135.661 89.1121C135.661 89.5484 135.307 89.9033 134.87 89.9033Z" fill="#AEC3FF"/>
<path d="M74.4249 92.7656H71.8784C71.5732 92.7656 71.3262 92.5183 71.3262 92.2127C71.3262 91.907 71.5732 91.6597 71.8784 91.6597H74.4249C74.7301 91.6597 74.9771 91.907 74.9771 92.2127C74.9771 92.5183 74.7301 92.7656 74.4249 92.7656Z" fill="#739AF0"/>
<path d="M135.108 92.7656H132.562C132.257 92.7656 132.01 92.5183 132.01 92.2127C132.01 91.907 132.257 91.6597 132.562 91.6597H135.108C135.414 91.6597 135.661 91.907 135.661 92.2127C135.661 92.5183 135.414 92.7656 135.108 92.7656Z" fill="#739AF0"/>
<path d="M134.87 74.6651H71.6887C71.2529 74.6651 70.8984 74.3111 70.8984 73.8738C70.8984 73.4374 71.2519 73.0825 71.6887 73.0825H134.87C135.306 73.0825 135.661 73.4364 135.661 73.8738C135.661 74.3111 135.307 74.6651 134.87 74.6651Z" fill="#AEC3FF"/>
<path d="M92.0892 71.3452H71.6887C71.2529 71.3452 70.8984 70.9913 70.8984 70.554C70.8984 70.1176 71.2519 69.7627 71.6887 69.7627H92.0892C92.525 69.7627 92.8794 70.1166 92.8794 70.554C92.8794 70.9903 92.526 71.3452 92.0892 71.3452Z" fill="#739AF0"/>
<path d="M92.0892 56.3008H71.6887C71.2529 56.3008 70.8984 55.9469 70.8984 55.5095C70.8984 55.0732 71.2519 54.7183 71.6887 54.7183H92.0892C92.525 54.7183 92.8794 55.0722 92.8794 55.5095C92.8794 55.9459 92.526 56.3008 92.0892 56.3008Z" fill="#739AF0"/>
<path d="M92.0892 86.4365H71.6887C71.2529 86.4365 70.8984 86.0826 70.8984 85.6453C70.8984 85.2089 71.2519 84.854 71.6887 84.854H92.0892C92.525 84.854 92.8794 85.2079 92.8794 85.6453C92.8794 86.0816 92.526 86.4365 92.0892 86.4365Z" fill="#739AF0"/>
<path d="M74.4249 77.5264H71.8784C71.5732 77.5264 71.3262 77.279 71.3262 76.9734C71.3262 76.6677 71.5732 76.4204 71.8784 76.4204H74.4249C74.7301 76.4204 74.9771 76.6677 74.9771 76.9734C74.9771 77.279 74.7301 77.5264 74.4249 77.5264Z" fill="#739AF0"/>
<path d="M135.108 77.5264H132.562C132.257 77.5264 132.01 77.279 132.01 76.9734C132.01 76.6677 132.257 76.4204 132.562 76.4204H135.108C135.414 76.4204 135.661 76.6677 135.661 76.9734C135.661 77.279 135.414 77.5264 135.108 77.5264Z" fill="#739AF0"/>
<path d="M134.87 59.4258H71.6887C71.2529 59.4258 70.8984 59.0719 70.8984 58.6345C70.8984 58.1982 71.2519 57.8433 71.6887 57.8433H134.87C135.306 57.8433 135.661 58.1972 135.661 58.6345C135.661 59.0709 135.307 59.4258 134.87 59.4258Z" fill="#AEC3FF"/>
<path d="M74.4249 62.2881H71.8784C71.5732 62.2881 71.3262 62.0408 71.3262 61.7351C71.3262 61.4295 71.5732 61.1821 71.8784 61.1821H74.4249C74.7301 61.1821 74.9771 61.4295 74.9771 61.7351C74.9771 62.0408 74.7301 62.2881 74.4249 62.2881Z" fill="#739AF0"/>
<path d="M135.108 62.2881H132.562C132.257 62.2881 132.01 62.0408 132.01 61.7351C132.01 61.4295 132.257 61.1821 132.562 61.1821H135.108C135.414 61.1821 135.661 61.4295 135.661 61.7351C135.661 62.0408 135.414 62.2881 135.108 62.2881Z" fill="#739AF0"/>
<path d="M55.9393 43.8215C55.9393 44.3806 55.4864 44.834 54.9281 44.834C54.3698 44.834 53.917 44.3806 53.917 43.8215C53.917 43.2625 54.3698 42.8091 54.9281 42.8091C55.4864 42.8091 55.9393 43.2625 55.9393 43.8215Z" fill="#233862"/>
<path d="M60.2801 43.8215C60.2801 44.3806 59.8272 44.834 59.269 44.834C58.7107 44.834 58.2578 44.3806 58.2578 43.8215C58.2578 43.2625 58.7107 42.8091 59.269 42.8091C59.8272 42.8091 60.2801 43.2625 60.2801 43.8215Z" fill="#233862"/>
<path d="M64.8865 43.8215C64.8865 44.3806 64.4337 44.834 63.8754 44.834C63.3171 44.834 62.8643 44.3806 62.8643 43.8215C62.8643 43.2625 63.3171 42.8091 63.8754 42.8091C64.4337 42.8091 64.8865 43.2625 64.8865 43.8215Z" fill="#233862"/>
<path d="M124.402 24.4993L131.653 21.8882V24.4993L124.402 26.85V24.4993Z" fill="#233862"/>
<path d="M125.067 24.3687V35.0231C125.067 35.0231 120.92 36.2769 120.53 34.0831C120.138 31.8892 124.363 33.143 124.363 33.143L124.401 24.6622L125.068 24.3687H125.067Z" fill="#233862"/>
<path d="M131.653 22.228V32.8825C131.653 32.8825 127.506 34.1363 127.115 31.9424C126.724 29.7486 130.949 31.0024 130.949 31.0024L130.987 22.5216L131.654 22.228H131.653Z" fill="#233862"/>
<path d="M147.459 61.2586L155.388 59.0869L155.171 61.8639L147.263 63.7591L147.459 61.2586Z" fill="#739AF0"/>
<path d="M148.176 61.1753L147.29 72.5064C147.29 72.5064 142.775 73.4938 142.541 71.128C142.307 68.7622 146.697 70.4483 146.697 70.4483L147.443 61.4327L148.176 61.1753Z" fill="#739AF0"/>
<path d="M155.36 59.4478L154.473 70.7789C154.473 70.7789 149.959 71.7662 149.725 69.4005C149.491 67.0347 153.881 68.7208 153.881 68.7208L154.627 59.7051L155.36 59.4478Z" fill="#739AF0"/>
<path d="M140.565 32.6917L155.664 28.6338L155.226 33.9143L140.169 37.4433L140.565 32.6917Z" fill="#F77D48"/>
<path d="M141.93 32.5401L140.138 54.0823C140.138 54.0823 131.543 55.9172 131.121 51.4159C130.699 46.9146 139.03 50.1611 139.03 50.1611L140.533 33.0207L141.93 32.5391V32.5401Z" fill="#F77D48"/>
<path d="M155.607 29.3203L153.815 50.8626C153.815 50.8626 145.219 52.6975 144.798 48.1962C144.376 43.6949 152.707 46.9424 152.707 46.9424L154.21 29.8019L155.607 29.3203Z" fill="#F77D48"/>
<path d="M56.4961 58.6356C56.4961 55.7541 58.8286 53.4185 61.7064 53.4185C64.5842 53.4185 66.9167 55.7541 66.9167 58.6356C66.9167 61.5172 64.5842 63.8528 61.7064 63.8528C58.8286 63.8528 56.4961 61.5172 56.4961 58.6356Z" fill="#739AF0"/>
<path d="M60.2813 55.7532V61.3996C60.2813 61.658 60.5775 61.8028 60.7813 61.645L64.0949 59.0731C64.374 58.8559 64.374 58.4336 64.0949 58.2175L60.6719 55.5611C60.5122 55.4375 60.2803 55.5511 60.2803 55.7532H60.2813Z" fill="white"/>
<path d="M56.4961 74.3221C56.4961 71.4406 58.8286 69.105 61.7064 69.105C64.5842 69.105 66.9167 71.4406 66.9167 74.3221C66.9167 77.2037 64.5842 79.5393 61.7064 79.5393C58.8286 79.5393 56.4961 77.2037 56.4961 74.3221Z" fill="#739AF0"/>
<path d="M60.2813 71.4397V77.0862C60.2813 77.3446 60.5775 77.4893 60.7813 77.3315L64.0949 74.7596C64.374 74.5424 64.374 74.1201 64.0949 73.904L60.6719 71.2477C60.5122 71.124 60.2803 71.2376 60.2803 71.4397H60.2813Z" fill="white"/>
<path d="M61.7064 94.7102C64.584 94.7102 66.9167 92.3744 66.9167 89.493C66.9167 86.6117 64.584 84.2759 61.7064 84.2759C58.8288 84.2759 56.4961 86.6117 56.4961 89.493C56.4961 92.3744 58.8288 94.7102 61.7064 94.7102Z" fill="#739AF0"/>
<path d="M60.2813 86.6106V92.2571C60.2813 92.5154 60.5775 92.6602 60.7813 92.5024L64.0949 89.9305C64.374 89.7133 64.374 89.291 64.0949 89.0749L60.6719 86.4185C60.5122 86.2949 60.2803 86.4085 60.2803 86.6106H60.2813Z" fill="white"/>
<path d="M166.301 83.7982L166.701 83.6544C168.454 83.025 169.375 81.0745 168.749 79.319L168.016 77.2649C167.388 75.5065 165.437 74.5825 163.682 75.2129L163.281 75.3566C161.528 75.986 160.607 77.9366 161.234 79.692L161.967 81.7461C162.594 83.5046 164.545 84.4276 166.301 83.7982Z" fill="#ED7D2B"/>
<path d="M196.988 95.0085C196.117 100.326 190.035 102.501 183.982 103.56C175.827 104.985 168.071 96.3779 167.716 95.854C167.36 95.3302 165.845 95.0557 170.118 90.7575C176.237 84.6043 165.387 81.02 164.374 74.6486C164.374 74.6486 161.496 70.9537 164.787 68.9287C166.708 67.7474 169.904 67.9937 170.212 67.8992C171.19 67.5976 172.129 67.3764 173.023 67.2276C176.811 66.5962 179.806 67.2618 181.578 68.6382C184.464 70.8803 183.614 78.6794 187.566 78.5255C191.52 78.3717 195.225 79.8446 194.836 84.2786C194.446 88.7125 197.943 89.18 196.987 95.0085H196.988Z" fill="#163560"/>
<path d="M194.858 83.9317L194.302 83.4139C194.624 81.754 194.322 80.3202 193.121 79.1831C192.081 78.1978 190.926 77.8006 189.595 78.1385C186.387 78.9519 185.722 78.2732 185.695 78.231L185.499 78.4693L185.501 78.0922L185.669 77.7373C185.675 77.7464 186.523 78.6834 189.54 77.9183C190.948 77.5603 192.386 77.9525 193.485 78.9921C194.742 80.1825 195.197 82.1964 194.859 83.9327L194.858 83.9317Z" fill="#163560"/>
<path d="M165.885 92.4398C165.885 92.4398 151.936 98.76 149.073 98.6353C146.209 98.5096 130.229 91.6606 130.229 91.6606L130.77 94.7744C130.77 94.7744 141.83 103.761 146.59 104.205C151.278 104.644 167.303 99.9936 168.85 99.0113C170.397 98.03 170.382 93.4342 165.885 92.4398Z" fill="#ED985F"/>
<path d="M164.991 99.0191C166.377 99.9812 168.114 100.776 170.295 101.279C178.469 103.17 181.602 96.2521 182.778 91.5035C181.663 90.8651 180.614 90.7243 180.009 90.6519C179.418 90.5825 178.797 90.5353 178.282 90.5101C177.364 89.8063 175.996 86.9248 175.693 82.4517L175.308 82.5552L168.866 84.3207C168.866 84.3207 169.161 86.3718 169.306 88.3093C169.417 89.8255 169.025 90.8158 168.738 91.1697C168.234 91.2793 168.344 91.8102 168.344 91.8102C168.344 91.8102 168.344 91.8122 168.341 91.8162C168.255 91.958 166.386 95.0356 164.991 99.0191Z" fill="#FFB27D"/>
<path d="M168.866 84.3207C168.866 84.3207 169.162 86.3698 169.306 88.3092C172.956 87.9433 174.65 84.4635 175.31 82.5552L168.867 84.3207H168.866Z" fill="#ED985F"/>
<path d="M167.777 86.2461C167.777 86.2461 176.44 85.7675 176.06 80.3694C175.679 74.9723 176.541 71.2753 170.993 71.3528C165.445 71.4302 164.517 73.5657 164.207 75.3986C163.897 77.2315 165.513 86.232 167.777 86.2461Z" fill="#FFB27D"/>
<path d="M185.245 116.655C186.027 112.651 188.579 96.6514 186.027 91.5026C185.111 89.6526 181.516 89.4857 177.572 89.6486C176.345 90.4419 173.665 93.2802 169.654 92.7483C168.729 92.6257 168.737 91.4785 168.905 90.9054C168.905 90.9034 166.886 90.9255 164.444 91.7489C163.122 92.1943 159.371 94.7903 159.371 94.7903C159.371 94.7903 161.563 97.4376 164.307 98.5999C163.84 102.779 164.534 104.623 168.865 114.278C172.524 122.44 168.371 129.786 168.371 129.786C168.371 129.786 189.912 147.129 190.033 138.298C190.123 131.65 184.243 121.774 185.243 116.655H185.245Z" fill="#739AF0"/>
<path d="M167.305 148.644C166.133 148.511 165.079 147.87 164.424 146.887C164.319 146.731 164.209 146.564 164.091 146.385C161.639 142.667 160.685 131.285 155.169 119.159C153.826 116.207 149.003 115.676 147.688 112.338C147.688 112.338 144.452 101.52 153.883 101.202C163.313 100.883 179.14 131.3 179.39 134.489C179.632 137.58 185.626 150.713 167.304 148.643L167.305 148.644Z" fill="#DD6D22"/>
<path d="M129.82 148.394H143.243C143.243 148.394 143.745 146.251 142.864 144.792C142.084 143.501 142.383 142.766 142.96 141.698C142.352 141.948 141.565 142.174 140.699 142.125C140.03 142.086 139.323 141.782 138.703 141.422C138.125 142.081 135.651 144.889 134.878 145.445C134 146.076 130.089 145.851 129.819 148.394H129.82Z" fill="#1A2E4F"/>
<path d="M185.899 96.8633C185.899 96.8633 183.418 104.155 172.087 107.49C160.757 110.825 159.701 100.304 168.848 99.0109C177.997 97.7179 185.898 96.8633 185.898 96.8633H185.899Z" fill="#4868C1"/>
<path d="M147.382 104.329C146.574 110.396 143.418 129.548 137.849 138.891C136.054 141.903 142.372 143.592 142.406 143.584C143.254 143.361 144.665 142.009 145.316 141.422C149.836 137.343 159.013 125.792 159.013 116.531C159.013 112.015 159.092 103.392 155.813 101.2C153.794 99.8495 147.704 101.92 147.382 104.329Z" fill="#ED7D2B"/>
<path d="M175.309 148.395C175.309 148.395 174.812 147.701 173.945 146.385C172.913 144.819 171.77 141.738 170.384 137.788C168.928 133.642 167.201 128.541 165.042 123.234C164.377 121.596 163.669 119.937 162.917 118.282C161.573 115.33 157.877 115.738 156.563 112.4C156.563 112.4 151.433 100.831 160.863 100.511C170.294 100.192 188.215 131.461 189.246 134.49C190.373 137.804 195.874 151.571 175.31 148.395H175.309Z" fill="#F99746"/>
<path d="M139.675 148.394H153.098C153.098 148.394 153.6 146.251 152.718 144.792C151.938 143.501 152.237 142.766 152.815 141.698C152.206 141.948 151.42 142.174 150.553 142.125C149.885 142.086 149.178 141.782 148.557 141.422C147.98 142.081 145.506 144.889 144.733 145.445C143.855 146.076 139.944 145.851 139.674 148.394H139.675Z" fill="#2B478B"/>
<path d="M170.385 137.789C168.929 133.643 167.202 128.542 165.043 123.235C165.606 119.214 166.822 115.696 168.868 114.278C168.868 114.278 173.828 129.666 170.385 137.789Z" fill="#ED7D2B"/>
<path d="M155.218 103.899C154.409 109.967 153.271 129.548 147.703 138.892C145.908 141.904 152.225 143.592 152.26 143.584C153.107 143.362 154.519 142.01 155.169 141.423C159.69 137.344 168.867 125.792 168.867 116.531C168.867 112.016 163.574 103.754 160.295 101.563C158.276 100.213 155.539 101.49 155.218 103.9V103.899Z" fill="#F99746"/>
<path d="M166.154 83.1417C166.154 83.1417 166.974 82.8179 169.278 83.0039C169.278 83.0039 169.156 83.9038 167.456 83.9933C166.493 84.0435 166.154 83.1417 166.154 83.1417Z" fill="white"/>
<path d="M139.957 97.9808L133.097 98.951C132.531 99.0314 132.008 98.6363 131.928 98.0692L130.1 85.1153C130.02 84.5483 130.415 84.0244 130.98 83.944L137.839 82.9738C138.405 82.8933 138.928 83.2885 139.009 83.8545L140.836 96.8084C140.916 97.3755 140.522 97.8993 139.956 97.9797L139.957 97.9808Z" fill="#254F82"/>
<path d="M138.582 98.176L131.722 99.1463C131.156 99.2267 130.633 98.8316 130.553 98.2655L128.725 85.3116C128.645 84.7446 129.04 84.2207 129.605 84.1403L136.464 83.1701C137.03 83.0896 137.553 83.4848 137.634 84.0508L139.461 97.0047C139.542 97.5718 139.147 98.0956 138.582 98.176Z" fill="#163560"/>
<path d="M129.536 86.0796C129.467 85.5889 129.808 85.1345 130.298 85.0651C130.788 84.9957 131.242 85.3376 131.312 85.8282C131.381 86.3189 131.039 86.7733 130.549 86.8427C130.059 86.9121 129.606 86.5702 129.536 86.0796Z" fill="#254F82"/>
<path d="M128.036 89.7468C128.37 88.8178 129.415 87.5641 129.866 87.4746C131.241 87.2031 131.241 89.0159 130.949 90.1852C130.747 90.9996 130.088 91.5828 129.669 92.005L129.966 94.1124C127.644 92.8345 127.6 90.9634 128.035 89.7468H128.036Z" fill="#FFB27D"/>
<path d="M150.605 137.556C148.548 137.556 146.782 136.402 144.728 135.062C142.603 133.673 140.194 132.101 136.765 131.211C132.778 130.176 128.228 130.299 122.857 131.587C115.995 133.232 109.276 133.788 103.427 133.194C97.4971 132.591 92.5991 130.816 89.2614 128.06C87.5112 126.615 86.1858 124.902 85.3223 122.968C84.4206 120.949 84.0169 118.676 84.1244 116.214L84.3302 116.223C84.1214 121.026 85.8243 124.955 89.3919 127.902C92.6985 130.633 97.5584 132.391 103.447 132.99C109.273 133.583 115.968 133.029 122.809 131.389C135 128.466 140.687 132.18 144.84 134.892C148.004 136.958 150.29 138.451 153.963 136.342C156.916 134.647 157.991 131.22 157.157 126.156C156.455 121.893 154.537 117.482 153.454 115.233C152.424 113.089 151.792 110.857 151.58 108.599C151.366 106.332 151.633 104.63 152.397 103.399C153.255 102.014 154.736 101.202 156.923 100.914C163.346 100.072 166.705 97.3441 166.705 95.0859C166.705 94.1719 166.322 92.9936 165.878 91.6282C165.083 89.183 164.182 86.4111 165.079 83.9639L165.272 84.0353C164.399 86.4151 165.289 89.1519 166.073 91.5649C166.522 92.9463 166.91 94.1398 166.91 95.0859C166.91 97.8247 162.721 100.361 156.949 101.119C152.939 101.645 151.347 103.947 151.783 108.58C151.994 110.814 152.618 113.023 153.638 115.144C154.724 117.403 156.653 121.834 157.358 126.123C158.207 131.282 157.098 134.781 154.064 136.522C152.782 137.257 151.654 137.56 150.602 137.56L150.605 137.556Z" fill="#163560"/>
<path d="M166.849 95.1775L166.771 94.9864C169.077 94.0534 170.955 92.675 172.351 90.8893C173.47 89.4606 174.285 87.7675 174.777 85.8582C175.615 82.6036 175.211 79.8176 175.207 79.7904L175.411 79.7593C175.415 79.7874 175.825 82.6157 174.977 85.9095C174.479 87.8459 173.65 89.5642 172.514 91.016C171.094 92.8308 169.188 94.2314 166.849 95.1775Z" fill="#163560"/>
<path d="M136.316 91.7829C136.8 91.6894 137.837 91.2982 138.889 91.0087C138.575 90.7654 138.226 90.4647 138.128 90.1571C137.941 89.5639 137.816 89.3739 138.441 89.5609C139.065 89.7489 141.252 90.7523 141.252 90.7523C141.252 90.7523 141.247 90.7543 141.246 90.7553C142.488 91.1183 143.633 92.8768 143.633 92.8768C143.633 92.8768 159.013 98.29 160.864 98.3835C163.726 98.5273 182.778 91.5023 182.778 91.5023C187.275 92.4957 186.266 98.0276 184.718 99.0099C183.171 99.9912 169.462 104.985 161.336 105.08C157.222 105.127 142.251 95.4939 142.251 95.4939C142.251 95.4939 140.502 94.6936 139.127 94.9429C137.752 95.1933 134.565 94.9429 133.877 93.8168C133.189 92.6908 135.502 91.9397 136.314 91.7829H136.316Z" fill="#FFB27D"/>
<path d="M172.962 94.9681C172.962 94.9681 174.666 100.369 180.518 101.599C180.518 101.599 190.182 98.6178 185.37 92.0252C185.37 92.0252 180.612 88.4851 172.961 94.9681H172.962Z" fill="#739AF0"/>
<path d="M164.375 74.6487C164.375 74.6487 165.867 75.3003 168.284 74.322C170.701 73.3437 171.161 75.1726 171.188 76.002C171.252 77.9717 172.961 77.9385 172.961 77.9385L177.298 75.1585V70.0107L170.119 68.209L164.167 70.2168C164.167 70.2168 163.855 72.9576 164.374 74.6487H164.375Z" fill="#163560"/>
<path d="M175.398 74.6827L174.095 74.8064C174.091 74.8205 173.138 75.0648 173.136 75.0899C173.185 74.5269 172.119 70.4931 170.214 67.9001C171.192 67.5985 172.131 67.3773 173.025 67.2285C174.653 69.7944 175.544 74.2052 175.399 74.6827H175.398Z" fill="#ED7D2B"/>
<path d="M176.425 82.7213L176.835 82.6057C178.626 82.0989 179.68 80.2148 179.175 78.4211L178.584 76.3218C178.078 74.5241 176.195 73.4694 174.401 73.9771L173.991 74.0927C172.2 74.5995 171.147 76.4826 171.652 78.2773L172.242 80.3766C172.748 82.1743 174.631 83.229 176.425 82.7213Z" fill="#ED7D2B"/>
<path d="M176.326 80.4119L176.53 80.3546C177.423 80.1022 177.948 79.1631 177.696 78.2693L177.402 77.2237C177.15 76.3278 176.212 75.802 175.317 76.0554L175.113 76.1137C174.221 76.366 173.697 77.3051 173.948 78.1989L174.242 79.2446C174.494 80.1404 175.432 80.6662 176.326 80.4129V80.4119Z" fill="#F99746"/>
<path d="M164.844 83.7427L164.754 84.6315L165.179 84.7079L165.423 83.8201L164.844 83.7427Z" fill="#ED7D2B"/>
<path d="M175.021 82.4507V83.8331H175.443L175.678 82.4507H175.021Z" fill="#ED7D2B"/>
<path d="M10.9451 148.288H234.723C234.877 148.288 235.001 148.413 235.001 148.567V148.722C235.001 148.876 234.877 149.001 234.723 149.001H10.9451C10.7915 149.001 10.667 148.876 10.667 148.722V148.567C10.667 148.413 10.7915 148.288 10.9451 148.288Z" fill="#233862"/>
</g>
<defs>
<clipPath id="clip0_1_6464">
<rect width="235" height="149" fill="white"/>
</clipPath>
</defs>
</svg>
